<svg width="390" height="847" viewBox="0 0 390 847" fill="none" xmlns="http://www.w3.org/2000/svg">
<rect width="390" height="847" rx="20" fill="white"/>
<path d="M0 20C0 8.95431 8.95431 0 20 0H370C381.046 0 390 8.95431 390 20V100C390 111.046 381.046 120 370 120H20C8.9543 120 0 111.046 0 100V20Z" fill="#3B3936"/>
<path d="M26.52 44V39.56H19.2V37.34L27.3 25.31H29.82V36.83H32.28V39.59H29.82V44H26.52ZM22.62 36.89H26.61V30.65L22.62 36.89ZM53.73 44V28.16H48.69V25.31H62.28V28.16H56.97V44H53.73ZM70.47 44.3C69.23 44.3 68.1 44 67.08 43.4C66.08 42.78 65.29 41.92 64.71 40.82C64.13 39.72 63.84 38.45 63.84 37.01C63.84 35.63 64.13 34.39 64.71 33.29C65.29 32.19 66.08 31.32 67.08 30.68C68.1 30.04 69.23 29.72 70.47 29.72C71.73 29.72 72.86 30.04 73.86 30.68C74.88 31.32 75.68 32.19 76.26 33.29C76.86 34.39 77.16 35.63 77.16 37.01C77.16 38.45 76.86 39.72 76.26 40.82C75.68 41.92 74.88 42.78 73.86 43.4C72.86 44 71.73 44.3 70.47 44.3ZM70.47 41.6C71.13 41.6 71.7 41.41 72.18 41.03C72.66 40.63 73.04 40.09 73.32 39.41C73.62 38.71 73.77 37.91 73.77 37.01C73.77 36.07 73.62 35.26 73.32 34.58C73.04 33.9 72.66 33.38 72.18 33.02C71.7 32.64 71.13 32.45 70.47 32.45C69.87 32.45 69.32 32.64 68.82 33.02C68.34 33.38 67.95 33.9 67.65 34.58C67.37 35.26 67.23 36.07 67.23 37.01C67.23 37.91 67.37 38.71 67.65 39.41C67.93 40.09 68.31 40.63 68.79 41.03C69.29 41.41 69.85 41.6 70.47 41.6ZM84.78 44.33C84 44.33 83.26 44.18 82.56 43.88C81.88 43.58 81.27 43.12 80.73 42.5C80.19 41.88 79.76 41.11 79.44 40.19C79.14 39.27 78.99 38.19 78.99 36.95C78.99 35.75 79.14 34.7 79.44 33.8C79.74 32.88 80.15 32.12 80.67 31.52C81.21 30.9 81.83 30.44 82.53 30.14C83.23 29.84 83.99 29.69 84.81 29.69C85.27 29.69 85.71 29.75 86.13 29.87C86.57 29.99 86.96 30.17 87.3 30.41C87.66 30.63 87.95 30.94 88.17 31.34V23.87H91.5H91.8V24.14C91.68 24.26 91.6 24.39 91.56 24.53C91.54 24.67 91.53 24.91 91.53 25.25L91.5 42.14C91.5 42.46 91.52 42.77 91.56 43.07C91.6 43.37 91.69 43.68 91.83 44H88.5C88.4 43.78 88.33 43.6 88.29 43.46C88.25 43.32 88.22 43.18 88.2 43.04C88.2 42.88 88.2 42.69 88.2 42.47C87.96 42.89 87.66 43.24 87.3 43.52C86.94 43.8 86.55 44 86.13 44.12C85.71 44.26 85.26 44.33 84.78 44.33ZM85.35 41.6C85.81 41.6 86.21 41.51 86.55 41.33C86.91 41.13 87.2 40.84 87.42 40.46C87.66 40.08 87.83 39.6 87.93 39.02C88.05 38.42 88.11 37.74 88.11 36.98C88.11 35.94 88.01 35.08 87.81 34.4C87.61 33.7 87.3 33.18 86.88 32.84C86.46 32.5 85.92 32.33 85.26 32.33C84.8 32.33 84.38 32.44 84 32.66C83.62 32.86 83.31 33.16 83.07 33.56C82.83 33.96 82.64 34.44 82.5 35C82.38 35.56 82.32 36.19 82.32 36.89C82.32 37.87 82.45 38.71 82.71 39.41C82.99 40.11 83.36 40.65 83.82 41.03C84.28 41.41 84.79 41.6 85.35 41.6ZM100.47 44.3C99.23 44.3 98.1 44 97.08 43.4C96.08 42.78 95.29 41.92 94.71 40.82C94.13 39.72 93.84 38.45 93.84 37.01C93.84 35.63 94.13 34.39 94.71 33.29C95.29 32.19 96.08 31.32 97.08 30.68C98.1 30.04 99.23 29.72 100.47 29.72C101.73 29.72 102.86 30.04 103.86 30.68C104.88 31.32 105.68 32.19 106.26 33.29C106.86 34.39 107.16 35.63 107.16 37.01C107.16 38.45 106.86 39.72 106.26 40.82C105.68 41.92 104.88 42.78 103.86 43.4C102.86 44 101.73 44.3 100.47 44.3ZM100.47 41.6C101.13 41.6 101.7 41.41 102.18 41.03C102.66 40.63 103.04 40.09 103.32 39.41C103.62 38.71 103.77 37.91 103.77 37.01C103.77 36.07 103.62 35.26 103.32 34.58C103.04 33.9 102.66 33.38 102.18 33.02C101.7 32.64 101.13 32.45 100.47 32.45C99.87 32.45 99.32 32.64 98.82 33.02C98.34 33.38 97.95 33.9 97.65 34.58C97.37 35.26 97.23 36.07 97.23 37.01C97.23 37.91 97.37 38.71 97.65 39.41C97.93 40.09 98.31 40.63 98.79 41.03C99.29 41.41 99.85 41.6 100.47 41.6ZM115.77 44.33C114.93 44.33 114.12 44.25 113.34 44.09C112.56 43.95 111.84 43.72 111.18 43.4C110.52 43.06 109.91 42.63 109.35 42.11L110.85 39.35L110.97 39.11L111.21 39.26C111.27 39.4 111.33 39.56 111.39 39.74C111.45 39.9 111.6 40.09 111.84 40.31C112.34 40.73 112.91 41.06 113.55 41.3C114.19 41.54 114.95 41.66 115.83 41.66C116.39 41.66 116.86 41.6 117.24 41.48C117.64 41.34 117.94 41.16 118.14 40.94C118.36 40.7 118.47 40.43 118.47 40.13C118.47 39.89 118.41 39.68 118.29 39.5C118.17 39.32 117.98 39.16 117.72 39.02C117.46 38.88 117.12 38.74 116.7 38.6C116.28 38.44 115.78 38.27 115.2 38.09C114.18 37.83 113.29 37.51 112.53 37.13C111.79 36.73 111.22 36.25 110.82 35.69C110.42 35.13 110.22 34.48 110.22 33.74C110.22 32.96 110.44 32.27 110.88 31.67C111.34 31.07 111.98 30.6 112.8 30.26C113.62 29.9 114.59 29.72 115.71 29.72C116.29 29.72 116.84 29.77 117.36 29.87C117.88 29.95 118.37 30.08 118.83 30.26C119.31 30.42 119.75 30.64 120.15 30.92C120.57 31.18 120.96 31.49 121.32 31.85L119.67 34.16L119.46 34.4L119.25 34.22C119.23 34.06 119.18 33.91 119.1 33.77C119.04 33.61 118.89 33.42 118.65 33.2C118.25 32.9 117.79 32.68 117.27 32.54C116.77 32.4 116.27 32.33 115.77 32.33C115.09 32.33 114.5 32.44 114 32.66C113.52 32.88 113.28 33.22 113.28 33.68C113.28 33.94 113.39 34.18 113.61 34.4C113.83 34.6 114.19 34.8 114.69 35C115.21 35.18 115.89 35.38 116.73 35.6C117.85 35.9 118.76 36.25 119.46 36.65C120.18 37.03 120.7 37.49 121.02 38.03C121.36 38.57 121.53 39.2 121.53 39.92C121.53 40.7 121.31 41.43 120.87 42.11C120.43 42.79 119.78 43.33 118.92 43.73C118.08 44.13 117.03 44.33 115.77 44.33Z" fill="white"/>
<path d="M306.944 44V41.1667H312.056V44H306.944ZM301.833 36.9167V34.0833H317.167V36.9167H301.833ZM298 29.8333V27H321V29.8333H298Z" fill="white"/>
<path d="M350 44V41.1667H373V44H350ZM350 36.9167V34.0833H373V36.9167H350ZM350 29.8333V27H373V29.8333H350Z" fill="white"/>
<path d="M0 90C0 78.9543 8.95431 70 20 70H370C381.046 70 390 78.9543 390 90V827C390 838.046 381.046 847 370 847H20C8.9543 847 0 838.046 0 827V90Z" fill="white"/>
<path d="M22.06 105V93.186L19.288 94L18.936 93.142L22.522 91.272H23.6V105H22.06ZM43.576 105V92.658H39.682V91.272H49.186V92.658H45.138V105H43.576ZM54.642 105.242C53.498 105.242 52.618 104.985 52.002 104.472C51.386 103.944 51.078 103.277 51.078 102.47C51.078 101.927 51.21 101.443 51.474 101.018C51.738 100.578 52.0973 100.211 52.552 99.918C53.0213 99.61 53.564 99.3753 54.18 99.214C54.796 99.0527 55.4487 98.972 56.138 98.972C56.3873 98.972 56.6367 98.9793 56.886 98.994C57.15 98.994 57.4213 99.0087 57.7 99.038C57.9933 99.0527 58.294 99.082 58.602 99.126L58.646 100.336C58.382 100.292 58.1107 100.263 57.832 100.248C57.568 100.219 57.304 100.197 57.04 100.182C56.776 100.167 56.5193 100.16 56.27 100.16C55.742 100.16 55.258 100.204 54.818 100.292C54.378 100.38 53.9967 100.512 53.674 100.688C53.3513 100.864 53.102 101.091 52.926 101.37C52.75 101.649 52.662 101.986 52.662 102.382C52.662 102.69 52.7133 102.954 52.816 103.174C52.9333 103.379 53.0873 103.548 53.278 103.68C53.4687 103.797 53.6887 103.885 53.938 103.944C54.202 104.003 54.488 104.032 54.796 104.032C55.368 104.032 55.874 103.944 56.314 103.768C56.7687 103.577 57.15 103.306 57.458 102.954C57.7807 102.602 58.0227 102.169 58.184 101.656C58.3453 101.143 58.426 100.556 58.426 99.896C58.426 98.8987 58.3087 98.1213 58.074 97.564C57.8393 97.0067 57.4873 96.6107 57.018 96.376C56.5633 96.1413 55.9767 96.024 55.258 96.024C54.774 96.024 54.2973 96.1193 53.828 96.31C53.3587 96.486 52.9333 96.7647 52.552 97.146L51.782 96.134C52.2513 95.6647 52.794 95.3127 53.41 95.078C54.026 94.8433 54.6787 94.726 55.368 94.726C56.028 94.726 56.6293 94.8067 57.172 94.968C57.7147 95.1293 58.1767 95.4007 58.558 95.782C58.954 96.1487 59.2547 96.6473 59.46 97.278C59.68 97.9087 59.79 98.7007 59.79 99.654V105H58.074V103.46C57.8833 103.827 57.6487 104.127 57.37 104.362C57.106 104.597 56.82 104.78 56.512 104.912C56.204 105.029 55.8887 105.11 55.566 105.154C55.2433 105.213 54.9353 105.242 54.642 105.242ZM66.522 105.22C65.9647 105.22 65.4293 105.161 64.916 105.044C64.4173 104.927 63.9407 104.751 63.486 104.516C63.046 104.281 62.6353 103.988 62.254 103.636L63.134 102.14L63.266 101.942L63.398 102.03C63.4273 102.147 63.4567 102.272 63.486 102.404C63.53 102.521 63.6327 102.668 63.794 102.844C64.102 103.152 64.4687 103.409 64.894 103.614C65.334 103.805 65.8913 103.9 66.566 103.9C67.1087 103.9 67.5633 103.834 67.93 103.702C68.3113 103.57 68.6047 103.387 68.81 103.152C69.0153 102.903 69.118 102.617 69.118 102.294C69.118 102.074 69.074 101.883 68.986 101.722C68.898 101.546 68.7513 101.385 68.546 101.238C68.3553 101.091 68.0987 100.945 67.776 100.798C67.4533 100.651 67.0573 100.505 66.588 100.358C65.8253 100.138 65.158 99.8813 64.586 99.588C64.014 99.2947 63.574 98.9573 63.266 98.576C62.958 98.18 62.804 97.7327 62.804 97.234C62.804 96.7207 62.9433 96.2807 63.222 95.914C63.5007 95.5327 63.9113 95.2393 64.454 95.034C65.0113 94.814 65.6933 94.704 66.5 94.704C66.9693 94.704 67.3947 94.7407 67.776 94.814C68.1573 94.8727 68.5093 94.968 68.832 95.1C69.1547 95.232 69.448 95.4007 69.712 95.606C69.9907 95.7967 70.2547 96.024 70.504 96.288L69.602 97.388L69.448 97.564L69.338 97.454C69.3233 97.3367 69.2867 97.2267 69.228 97.124C69.184 97.0067 69.0813 96.8673 68.92 96.706C68.5827 96.442 68.2013 96.244 67.776 96.112C67.3507 95.9653 66.94 95.892 66.544 95.892C65.9573 95.892 65.4513 95.9947 65.026 96.2C64.6007 96.4053 64.388 96.7207 64.388 97.146C64.388 97.366 64.4613 97.586 64.608 97.806C64.7693 98.0113 65.0553 98.224 65.466 98.444C65.8767 98.6493 66.4633 98.862 67.226 99.082C68.062 99.346 68.7293 99.6173 69.228 99.896C69.7413 100.16 70.108 100.468 70.328 100.82C70.5627 101.172 70.68 101.59 70.68 102.074C70.68 102.631 70.526 103.152 70.218 103.636C69.9247 104.12 69.47 104.509 68.854 104.802C68.238 105.081 67.4607 105.22 66.522 105.22ZM76.378 99.962L75.058 101.194V105H73.452V90.37H75.036H75.256V90.524C75.168 90.612 75.1093 90.7073 75.08 90.81C75.0653 90.9127 75.058 91.0887 75.058 91.338V99.566L80.096 94.902C80.184 94.9167 80.272 94.9313 80.36 94.946C80.448 94.9607 80.536 94.9753 80.624 94.99C80.7267 94.99 80.8293 94.9973 80.932 95.012C81.0493 95.012 81.1593 95.012 81.262 95.012H81.834L77.61 98.994L82.538 105L80.492 105.088L76.378 99.962Z" fill="#C1C1C1"/>
<path d="M17 98.972H83V100.072H17V98.972Z" fill="#C1C1C1"/>
<path d="M19.606 158.768C20.398 157.961 21.124 157.228 21.784 156.568C22.444 155.908 23.0307 155.299 23.544 154.742C24.072 154.17 24.5193 153.635 24.886 153.136C25.2527 152.623 25.5313 152.124 25.722 151.64C25.9127 151.141 26.008 150.621 26.008 150.078C26.008 149.609 25.9493 149.213 25.832 148.89C25.7147 148.567 25.546 148.311 25.326 148.12C25.1207 147.915 24.8713 147.768 24.578 147.68C24.2993 147.592 23.9987 147.548 23.676 147.548C23.324 147.548 22.9867 147.599 22.664 147.702C22.3413 147.805 22.0333 147.959 21.74 148.164C21.4467 148.355 21.1753 148.611 20.926 148.934C20.794 149.139 20.7133 149.301 20.684 149.418C20.6547 149.521 20.6473 149.631 20.662 149.748L20.574 149.858L20.398 149.748L19.276 148.868C19.5693 148.296 19.936 147.812 20.376 147.416C20.816 147.02 21.3147 146.719 21.872 146.514C22.4293 146.309 23.0233 146.206 23.654 146.206C24.4313 146.206 25.1133 146.367 25.7 146.69C26.2867 146.998 26.7487 147.445 27.086 148.032C27.4233 148.619 27.592 149.315 27.592 150.122C27.592 150.723 27.482 151.31 27.262 151.882C27.042 152.439 26.7413 152.989 26.36 153.532C25.9787 154.075 25.5313 154.617 25.018 155.16C24.5047 155.703 23.9547 156.267 23.368 156.854C22.796 157.426 22.202 158.027 21.586 158.658H26.69C26.9393 158.658 27.1153 158.643 27.218 158.614C27.3207 158.585 27.416 158.526 27.504 158.438H27.658V158.658V160H19.606V158.768ZM44.576 160V147.658H40.682V146.272H50.186V147.658H46.138V160H44.576ZM55.642 160.242C54.498 160.242 53.618 159.985 53.002 159.472C52.386 158.944 52.078 158.277 52.078 157.47C52.078 156.927 52.21 156.443 52.474 156.018C52.738 155.578 53.0973 155.211 53.552 154.918C54.0213 154.61 54.564 154.375 55.18 154.214C55.796 154.053 56.4487 153.972 57.138 153.972C57.3873 153.972 57.6367 153.979 57.886 153.994C58.15 153.994 58.4213 154.009 58.7 154.038C58.9933 154.053 59.294 154.082 59.602 154.126L59.646 155.336C59.382 155.292 59.1107 155.263 58.832 155.248C58.568 155.219 58.304 155.197 58.04 155.182C57.776 155.167 57.5193 155.16 57.27 155.16C56.742 155.16 56.258 155.204 55.818 155.292C55.378 155.38 54.9967 155.512 54.674 155.688C54.3513 155.864 54.102 156.091 53.926 156.37C53.75 156.649 53.662 156.986 53.662 157.382C53.662 157.69 53.7133 157.954 53.816 158.174C53.9333 158.379 54.0873 158.548 54.278 158.68C54.4687 158.797 54.6887 158.885 54.938 158.944C55.202 159.003 55.488 159.032 55.796 159.032C56.368 159.032 56.874 158.944 57.314 158.768C57.7687 158.577 58.15 158.306 58.458 157.954C58.7807 157.602 59.0227 157.169 59.184 156.656C59.3453 156.143 59.426 155.556 59.426 154.896C59.426 153.899 59.3087 153.121 59.074 152.564C58.8393 152.007 58.4873 151.611 58.018 151.376C57.5633 151.141 56.9767 151.024 56.258 151.024C55.774 151.024 55.2973 151.119 54.828 151.31C54.3587 151.486 53.9333 151.765 53.552 152.146L52.782 151.134C53.2513 150.665 53.794 150.313 54.41 150.078C55.026 149.843 55.6787 149.726 56.368 149.726C57.028 149.726 57.6293 149.807 58.172 149.968C58.7147 150.129 59.1767 150.401 59.558 150.782C59.954 151.149 60.2547 151.647 60.46 152.278C60.68 152.909 60.79 153.701 60.79 154.654V160H59.074V158.46C58.8833 158.827 58.6487 159.127 58.37 159.362C58.106 159.597 57.82 159.78 57.512 159.912C57.204 160.029 56.8887 160.11 56.566 160.154C56.2433 160.213 55.9353 160.242 55.642 160.242ZM67.522 160.22C66.9647 160.22 66.4293 160.161 65.916 160.044C65.4173 159.927 64.9407 159.751 64.486 159.516C64.046 159.281 63.6353 158.988 63.254 158.636L64.134 157.14L64.266 156.942L64.398 157.03C64.4273 157.147 64.4567 157.272 64.486 157.404C64.53 157.521 64.6327 157.668 64.794 157.844C65.102 158.152 65.4687 158.409 65.894 158.614C66.334 158.805 66.8913 158.9 67.566 158.9C68.1087 158.9 68.5633 158.834 68.93 158.702C69.3113 158.57 69.6047 158.387 69.81 158.152C70.0153 157.903 70.118 157.617 70.118 157.294C70.118 157.074 70.074 156.883 69.986 156.722C69.898 156.546 69.7513 156.385 69.546 156.238C69.3553 156.091 69.0987 155.945 68.776 155.798C68.4533 155.651 68.0573 155.505 67.588 155.358C66.8253 155.138 66.158 154.881 65.586 154.588C65.014 154.295 64.574 153.957 64.266 153.576C63.958 153.18 63.804 152.733 63.804 152.234C63.804 151.721 63.9433 151.281 64.222 150.914C64.5007 150.533 64.9113 150.239 65.454 150.034C66.0113 149.814 66.6933 149.704 67.5 149.704C67.9693 149.704 68.3947 149.741 68.776 149.814C69.1573 149.873 69.5093 149.968 69.832 150.1C70.1547 150.232 70.448 150.401 70.712 150.606C70.9907 150.797 71.2547 151.024 71.504 151.288L70.602 152.388L70.448 152.564L70.338 152.454C70.3233 152.337 70.2867 152.227 70.228 152.124C70.184 152.007 70.0813 151.867 69.92 151.706C69.5827 151.442 69.2013 151.244 68.776 151.112C68.3507 150.965 67.94 150.892 67.544 150.892C66.9573 150.892 66.4513 150.995 66.026 151.2C65.6007 151.405 65.388 151.721 65.388 152.146C65.388 152.366 65.4613 152.586 65.608 152.806C65.7693 153.011 66.0553 153.224 66.466 153.444C66.8767 153.649 67.4633 153.862 68.226 154.082C69.062 154.346 69.7293 154.617 70.228 154.896C70.7413 155.16 71.108 155.468 71.328 155.82C71.5627 156.172 71.68 156.59 71.68 157.074C71.68 157.631 71.526 158.152 71.218 158.636C70.9247 159.12 70.47 159.509 69.854 159.802C69.238 160.081 68.4607 160.22 67.522 160.22ZM77.378 154.962L76.058 156.194V160H74.452V145.37H76.036H76.256V145.524C76.168 145.612 76.1093 145.707 76.08 145.81C76.0653 145.913 76.058 146.089 76.058 146.338V154.566L81.096 149.902C81.184 149.917 81.272 149.931 81.36 149.946C81.448 149.961 81.536 149.975 81.624 149.99C81.7267 149.99 81.8293 149.997 81.932 150.012C82.0493 150.012 82.1593 150.012 82.262 150.012H82.834L78.61 153.994L83.538 160L81.492 160.088L77.378 154.962Z" fill="#3B3936"/>
<path d="M23.996 286V282.634H18.056V281.512L24.326 272.272H25.624V281.358H27.384V282.656H25.624V286H23.996ZM19.838 281.336H23.996V275.044L19.838 281.336ZM43.576 286V273.658H39.682V272.272H49.186V273.658H45.138V286H43.576ZM54.642 286.242C53.498 286.242 52.618 285.985 52.002 285.472C51.386 284.944 51.078 284.277 51.078 283.47C51.078 282.927 51.21 282.443 51.474 282.018C51.738 281.578 52.0973 281.211 52.552 280.918C53.0213 280.61 53.564 280.375 54.18 280.214C54.796 280.053 55.4487 279.972 56.138 279.972C56.3873 279.972 56.6367 279.979 56.886 279.994C57.15 279.994 57.4213 280.009 57.7 280.038C57.9933 280.053 58.294 280.082 58.602 280.126L58.646 281.336C58.382 281.292 58.1107 281.263 57.832 281.248C57.568 281.219 57.304 281.197 57.04 281.182C56.776 281.167 56.5193 281.16 56.27 281.16C55.742 281.16 55.258 281.204 54.818 281.292C54.378 281.38 53.9967 281.512 53.674 281.688C53.3513 281.864 53.102 282.091 52.926 282.37C52.75 282.649 52.662 282.986 52.662 283.382C52.662 283.69 52.7133 283.954 52.816 284.174C52.9333 284.379 53.0873 284.548 53.278 284.68C53.4687 284.797 53.6887 284.885 53.938 284.944C54.202 285.003 54.488 285.032 54.796 285.032C55.368 285.032 55.874 284.944 56.314 284.768C56.7687 284.577 57.15 284.306 57.458 283.954C57.7807 283.602 58.0227 283.169 58.184 282.656C58.3453 282.143 58.426 281.556 58.426 280.896C58.426 279.899 58.3087 279.121 58.074 278.564C57.8393 278.007 57.4873 277.611 57.018 277.376C56.5633 277.141 55.9767 277.024 55.258 277.024C54.774 277.024 54.2973 277.119 53.828 277.31C53.3587 277.486 52.9333 277.765 52.552 278.146L51.782 277.134C52.2513 276.665 52.794 276.313 53.41 276.078C54.026 275.843 54.6787 275.726 55.368 275.726C56.028 275.726 56.6293 275.807 57.172 275.968C57.7147 276.129 58.1767 276.401 58.558 276.782C58.954 277.149 59.2547 277.647 59.46 278.278C59.68 278.909 59.79 279.701 59.79 280.654V286H58.074V284.46C57.8833 284.827 57.6487 285.127 57.37 285.362C57.106 285.597 56.82 285.78 56.512 285.912C56.204 286.029 55.8887 286.11 55.566 286.154C55.2433 286.213 54.9353 286.242 54.642 286.242ZM66.522 286.22C65.9647 286.22 65.4293 286.161 64.916 286.044C64.4173 285.927 63.9407 285.751 63.486 285.516C63.046 285.281 62.6353 284.988 62.254 284.636L63.134 283.14L63.266 282.942L63.398 283.03C63.4273 283.147 63.4567 283.272 63.486 283.404C63.53 283.521 63.6327 283.668 63.794 283.844C64.102 284.152 64.4687 284.409 64.894 284.614C65.334 284.805 65.8913 284.9 66.566 284.9C67.1087 284.9 67.5633 284.834 67.93 284.702C68.3113 284.57 68.6047 284.387 68.81 284.152C69.0153 283.903 69.118 283.617 69.118 283.294C69.118 283.074 69.074 282.883 68.986 282.722C68.898 282.546 68.7513 282.385 68.546 282.238C68.3553 282.091 68.0987 281.945 67.776 281.798C67.4533 281.651 67.0573 281.505 66.588 281.358C65.8253 281.138 65.158 280.881 64.586 280.588C64.014 280.295 63.574 279.957 63.266 279.576C62.958 279.18 62.804 278.733 62.804 278.234C62.804 277.721 62.9433 277.281 63.222 276.914C63.5007 276.533 63.9113 276.239 64.454 276.034C65.0113 275.814 65.6933 275.704 66.5 275.704C66.9693 275.704 67.3947 275.741 67.776 275.814C68.1573 275.873 68.5093 275.968 68.832 276.1C69.1547 276.232 69.448 276.401 69.712 276.606C69.9907 276.797 70.2547 277.024 70.504 277.288L69.602 278.388L69.448 278.564L69.338 278.454C69.3233 278.337 69.2867 278.227 69.228 278.124C69.184 278.007 69.0813 277.867 68.92 277.706C68.5827 277.442 68.2013 277.244 67.776 277.112C67.3507 276.965 66.94 276.892 66.544 276.892C65.9573 276.892 65.4513 276.995 65.026 277.2C64.6007 277.405 64.388 277.721 64.388 278.146C64.388 278.366 64.4613 278.586 64.608 278.806C64.7693 279.011 65.0553 279.224 65.466 279.444C65.8767 279.649 66.4633 279.862 67.226 280.082C68.062 280.346 68.7293 280.617 69.228 280.896C69.7413 281.16 70.108 281.468 70.328 281.82C70.5627 282.172 70.68 282.59 70.68 283.074C70.68 283.631 70.526 284.152 70.218 284.636C69.9247 285.12 69.47 285.509 68.854 285.802C68.238 286.081 67.4607 286.22 66.522 286.22ZM76.378 280.962L75.058 282.194V286H73.452V271.37H75.036H75.256V271.524C75.168 271.612 75.1093 271.707 75.08 271.81C75.0653 271.913 75.058 272.089 75.058 272.338V280.566L80.096 275.902C80.184 275.917 80.272 275.931 80.36 275.946C80.448 275.961 80.536 275.975 80.624 275.99C80.7267 275.99 80.8293 275.997 80.932 276.012C81.0493 276.012 81.1593 276.012 81.262 276.012H81.834L77.61 279.994L82.538 286L80.492 286.088L76.378 280.962Z" fill="#3B3936"/>
<path d="M22.28 223.242C21.5613 223.242 20.872 223.11 20.212 222.846C19.552 222.582 18.9873 222.193 18.518 221.68L19.53 220.47L19.684 220.294L19.794 220.404C19.8087 220.521 19.838 220.639 19.882 220.756C19.926 220.859 20.0287 220.998 20.19 221.174C20.4393 221.394 20.7253 221.577 21.048 221.724C21.3707 221.856 21.7593 221.922 22.214 221.922C22.8007 221.922 23.2847 221.805 23.666 221.57C24.0473 221.335 24.3333 221.013 24.524 220.602C24.7147 220.177 24.81 219.7 24.81 219.172C24.81 218.644 24.7147 218.197 24.524 217.83C24.348 217.463 24.0913 217.177 23.754 216.972C23.4167 216.752 23.0133 216.605 22.544 216.532C22.0747 216.444 21.5467 216.429 20.96 216.488V215.256C21.664 215.256 22.236 215.183 22.676 215.036C23.1307 214.889 23.4753 214.691 23.71 214.442C23.9593 214.193 24.128 213.907 24.216 213.584C24.304 213.247 24.348 212.902 24.348 212.55C24.348 212.242 24.2967 211.963 24.194 211.714C24.106 211.465 23.974 211.252 23.798 211.076C23.6367 210.9 23.4313 210.768 23.182 210.68C22.9473 210.577 22.6833 210.526 22.39 210.526C22.0967 210.526 21.8033 210.563 21.51 210.636C21.2313 210.695 20.9527 210.797 20.674 210.944C20.41 211.091 20.146 211.289 19.882 211.538L18.958 210.614C19.4567 210.101 19.9993 209.741 20.586 209.536C21.1873 209.316 21.7813 209.206 22.368 209.206C23.116 209.206 23.754 209.353 24.282 209.646C24.81 209.925 25.2133 210.321 25.492 210.834C25.7853 211.347 25.932 211.941 25.932 212.616C25.932 213.085 25.8513 213.533 25.69 213.958C25.5433 214.369 25.3087 214.728 24.986 215.036C24.6633 215.344 24.26 215.579 23.776 215.74C24.2893 215.901 24.744 216.143 25.14 216.466C25.536 216.774 25.844 217.155 26.064 217.61C26.284 218.065 26.394 218.607 26.394 219.238C26.394 219.957 26.2327 220.624 25.91 221.24C25.602 221.841 25.14 222.325 24.524 222.692C23.9227 223.059 23.1747 223.242 22.28 223.242ZM43.576 223V210.658H39.682V209.272H49.186V210.658H45.138V223H43.576ZM54.642 223.242C53.498 223.242 52.618 222.985 52.002 222.472C51.386 221.944 51.078 221.277 51.078 220.47C51.078 219.927 51.21 219.443 51.474 219.018C51.738 218.578 52.0973 218.211 52.552 217.918C53.0213 217.61 53.564 217.375 54.18 217.214C54.796 217.053 55.4487 216.972 56.138 216.972C56.3873 216.972 56.6367 216.979 56.886 216.994C57.15 216.994 57.4213 217.009 57.7 217.038C57.9933 217.053 58.294 217.082 58.602 217.126L58.646 218.336C58.382 218.292 58.1107 218.263 57.832 218.248C57.568 218.219 57.304 218.197 57.04 218.182C56.776 218.167 56.5193 218.16 56.27 218.16C55.742 218.16 55.258 218.204 54.818 218.292C54.378 218.38 53.9967 218.512 53.674 218.688C53.3513 218.864 53.102 219.091 52.926 219.37C52.75 219.649 52.662 219.986 52.662 220.382C52.662 220.69 52.7133 220.954 52.816 221.174C52.9333 221.379 53.0873 221.548 53.278 221.68C53.4687 221.797 53.6887 221.885 53.938 221.944C54.202 222.003 54.488 222.032 54.796 222.032C55.368 222.032 55.874 221.944 56.314 221.768C56.7687 221.577 57.15 221.306 57.458 220.954C57.7807 220.602 58.0227 220.169 58.184 219.656C58.3453 219.143 58.426 218.556 58.426 217.896C58.426 216.899 58.3087 216.121 58.074 215.564C57.8393 215.007 57.4873 214.611 57.018 214.376C56.5633 214.141 55.9767 214.024 55.258 214.024C54.774 214.024 54.2973 214.119 53.828 214.31C53.3587 214.486 52.9333 214.765 52.552 215.146L51.782 214.134C52.2513 213.665 52.794 213.313 53.41 213.078C54.026 212.843 54.6787 212.726 55.368 212.726C56.028 212.726 56.6293 212.807 57.172 212.968C57.7147 213.129 58.1767 213.401 58.558 213.782C58.954 214.149 59.2547 214.647 59.46 215.278C59.68 215.909 59.79 216.701 59.79 217.654V223H58.074V221.46C57.8833 221.827 57.6487 222.127 57.37 222.362C57.106 222.597 56.82 222.78 56.512 222.912C56.204 223.029 55.8887 223.11 55.566 223.154C55.2433 223.213 54.9353 223.242 54.642 223.242ZM66.522 223.22C65.9647 223.22 65.4293 223.161 64.916 223.044C64.4173 222.927 63.9407 222.751 63.486 222.516C63.046 222.281 62.6353 221.988 62.254 221.636L63.134 220.14L63.266 219.942L63.398 220.03C63.4273 220.147 63.4567 220.272 63.486 220.404C63.53 220.521 63.6327 220.668 63.794 220.844C64.102 221.152 64.4687 221.409 64.894 221.614C65.334 221.805 65.8913 221.9 66.566 221.9C67.1087 221.9 67.5633 221.834 67.93 221.702C68.3113 221.57 68.6047 221.387 68.81 221.152C69.0153 220.903 69.118 220.617 69.118 220.294C69.118 220.074 69.074 219.883 68.986 219.722C68.898 219.546 68.7513 219.385 68.546 219.238C68.3553 219.091 68.0987 218.945 67.776 218.798C67.4533 218.651 67.0573 218.505 66.588 218.358C65.8253 218.138 65.158 217.881 64.586 217.588C64.014 217.295 63.574 216.957 63.266 216.576C62.958 216.18 62.804 215.733 62.804 215.234C62.804 214.721 62.9433 214.281 63.222 213.914C63.5007 213.533 63.9113 213.239 64.454 213.034C65.0113 212.814 65.6933 212.704 66.5 212.704C66.9693 212.704 67.3947 212.741 67.776 212.814C68.1573 212.873 68.5093 212.968 68.832 213.1C69.1547 213.232 69.448 213.401 69.712 213.606C69.9907 213.797 70.2547 214.024 70.504 214.288L69.602 215.388L69.448 215.564L69.338 215.454C69.3233 215.337 69.2867 215.227 69.228 215.124C69.184 215.007 69.0813 214.867 68.92 214.706C68.5827 214.442 68.2013 214.244 67.776 214.112C67.3507 213.965 66.94 213.892 66.544 213.892C65.9573 213.892 65.4513 213.995 65.026 214.2C64.6007 214.405 64.388 214.721 64.388 215.146C64.388 215.366 64.4613 215.586 64.608 215.806C64.7693 216.011 65.0553 216.224 65.466 216.444C65.8767 216.649 66.4633 216.862 67.226 217.082C68.062 217.346 68.7293 217.617 69.228 217.896C69.7413 218.16 70.108 218.468 70.328 218.82C70.5627 219.172 70.68 219.59 70.68 220.074C70.68 220.631 70.526 221.152 70.218 221.636C69.9247 222.12 69.47 222.509 68.854 222.802C68.238 223.081 67.4607 223.22 66.522 223.22ZM76.378 217.962L75.058 219.194V223H73.452V208.37H75.036H75.256V208.524C75.168 208.612 75.1093 208.707 75.08 208.81C75.0653 208.913 75.058 209.089 75.058 209.338V217.566L80.096 212.902C80.184 212.917 80.272 212.931 80.36 212.946C80.448 212.961 80.536 212.975 80.624 212.99C80.7267 212.99 80.8293 212.997 80.932 213.012C81.0493 213.012 81.1593 213.012 81.262 213.012H81.834L77.61 216.994L82.538 223L80.492 223.088L76.378 217.962Z" fill="#C1C1C1"/>
<path d="M17 216.972H83V218.072H17V216.972Z" fill="#C1C1C1"/>
<rect x="352.167" y="86.5" width="19" height="19" rx="3.5" fill="#3B3936" stroke="#3B3936"/>
<path d="M359.575 98.175L365.475 92.275C365.658 92.0917 365.892 92 366.175 92C366.458 92 366.692 92.0917 366.875 92.275C367.058 92.4583 367.15 92.6917 367.15 92.975C367.15 93.2583 367.058 93.4917 366.875 93.675L360.275 100.275C360.075 100.475 359.842 100.575 359.575 100.575C359.308 100.575 359.075 100.475 358.875 100.275L356.275 97.675C356.092 97.4917 356 97.2583 356 96.975C356 96.6917 356.092 96.4583 356.275 96.275C356.458 96.0917 356.692 96 356.975 96C357.258 96 357.492 96.0917 357.675 96.275L359.575 98.175Z" fill="white"/>
<rect x="351.5" y="140.5" width="21" height="21" rx="4.5" fill="white" stroke="#3B3936"/>
<rect x="352.5" y="204.5" width="19" height="19" rx="3.5" fill="#3B3936" stroke="#3B3936"/>
<path d="M359.575 216.175L365.475 210.275C365.658 210.092 365.892 210 366.175 210C366.458 210 366.692 210.092 366.875 210.275C367.058 210.458 367.15 210.692 367.15 210.975C367.15 211.258 367.058 211.492 366.875 211.675L360.275 218.275C360.075 218.475 359.842 218.575 359.575 218.575C359.308 218.575 359.075 218.475 358.875 218.275L356.275 215.675C356.092 215.492 356 215.258 356 214.975C356 214.692 356.092 214.458 356.275 214.275C356.458 214.092 356.692 214 356.975 214C357.258 214 357.492 214.092 357.675 214.275L359.575 216.175Z" fill="white"/>
<rect x="352.5" y="267.5" width="19" height="19" rx="3.5" fill="white" stroke="#3B3936"/>
<circle cx="342" cy="801" r="29" fill="#3B3936"/>
<g clip-path="url(#clip0_8_40)">
<path d="M352 802.429H343.429V811H340.571V802.429H332V799.571H340.571V791H343.429V799.571H352V802.429Z" fill="white"/>
</g>
<defs>
<clipPath id="clip0_8_40">
<rect width="20" height="20" fill="white" transform="translate(332 791)"/>
</clipPath>
</defs>
</svg>
