<svg width="398" height="855" viewBox="0 0 398 855" fill="none" xmlns="http://www.w3.org/2000/svg">
<g filter="url(#filter0_d_7_37)">
<path d="M4 20C4 8.95431 12.9543 0 24 0H374C385.046 0 394 8.95431 394 20V100C394 111.046 385.046 120 374 120H24C12.9543 120 4 111.046 4 100V20Z" fill="#3B3936" shape-rendering="crispEdges"/>
<path d="M30.52 44V39.56H23.2V37.34L31.3 25.31H33.82V36.83H36.28V39.59H33.82V44H30.52ZM26.62 36.89H30.61V30.65L26.62 36.89ZM57.73 44V28.16H52.69V25.31H66.28V28.16H60.97V44H57.73ZM74.47 44.3C73.23 44.3 72.1 44 71.08 43.4C70.08 42.78 69.29 41.92 68.71 40.82C68.13 39.72 67.84 38.45 67.84 37.01C67.84 35.63 68.13 34.39 68.71 33.29C69.29 32.19 70.08 31.32 71.08 30.68C72.1 30.04 73.23 29.72 74.47 29.72C75.73 29.72 76.86 30.04 77.86 30.68C78.88 31.32 79.68 32.19 80.26 33.29C80.86 34.39 81.16 35.63 81.16 37.01C81.16 38.45 80.86 39.72 80.26 40.82C79.68 41.92 78.88 42.78 77.86 43.4C76.86 44 75.73 44.3 74.47 44.3ZM74.47 41.6C75.13 41.6 75.7 41.41 76.18 41.03C76.66 40.63 77.04 40.09 77.32 39.41C77.62 38.71 77.77 37.91 77.77 37.01C77.77 36.07 77.62 35.26 77.32 34.58C77.04 33.9 76.66 33.38 76.18 33.02C75.7 32.64 75.13 32.45 74.47 32.45C73.87 32.45 73.32 32.64 72.82 33.02C72.34 33.38 71.95 33.9 71.65 34.58C71.37 35.26 71.23 36.07 71.23 37.01C71.23 37.91 71.37 38.71 71.65 39.41C71.93 40.09 72.31 40.63 72.79 41.03C73.29 41.41 73.85 41.6 74.47 41.6ZM88.78 44.33C88 44.33 87.26 44.18 86.56 43.88C85.88 43.58 85.27 43.12 84.73 42.5C84.19 41.88 83.76 41.11 83.44 40.19C83.14 39.27 82.99 38.19 82.99 36.95C82.99 35.75 83.14 34.7 83.44 33.8C83.74 32.88 84.15 32.12 84.67 31.52C85.21 30.9 85.83 30.44 86.53 30.14C87.23 29.84 87.99 29.69 88.81 29.69C89.27 29.69 89.71 29.75 90.13 29.87C90.57 29.99 90.96 30.17 91.3 30.41C91.66 30.63 91.95 30.94 92.17 31.34V23.87H95.5H95.8V24.14C95.68 24.26 95.6 24.39 95.56 24.53C95.54 24.67 95.53 24.91 95.53 25.25L95.5 42.14C95.5 42.46 95.52 42.77 95.56 43.07C95.6 43.37 95.69 43.68 95.83 44H92.5C92.4 43.78 92.33 43.6 92.29 43.46C92.25 43.32 92.22 43.18 92.2 43.04C92.2 42.88 92.2 42.69 92.2 42.47C91.96 42.89 91.66 43.24 91.3 43.52C90.94 43.8 90.55 44 90.13 44.12C89.71 44.26 89.26 44.33 88.78 44.33ZM89.35 41.6C89.81 41.6 90.21 41.51 90.55 41.33C90.91 41.13 91.2 40.84 91.42 40.46C91.66 40.08 91.83 39.6 91.93 39.02C92.05 38.42 92.11 37.74 92.11 36.98C92.11 35.94 92.01 35.08 91.81 34.4C91.61 33.7 91.3 33.18 90.88 32.84C90.46 32.5 89.92 32.33 89.26 32.33C88.8 32.33 88.38 32.44 88 32.66C87.62 32.86 87.31 33.16 87.07 33.56C86.83 33.96 86.64 34.44 86.5 35C86.38 35.56 86.32 36.19 86.32 36.89C86.32 37.87 86.45 38.71 86.71 39.41C86.99 40.11 87.36 40.65 87.82 41.03C88.28 41.41 88.79 41.6 89.35 41.6ZM104.47 44.3C103.23 44.3 102.1 44 101.08 43.4C100.08 42.78 99.29 41.92 98.71 40.82C98.13 39.72 97.84 38.45 97.84 37.01C97.84 35.63 98.13 34.39 98.71 33.29C99.29 32.19 100.08 31.32 101.08 30.68C102.1 30.04 103.23 29.72 104.47 29.72C105.73 29.72 106.86 30.04 107.86 30.68C108.88 31.32 109.68 32.19 110.26 33.29C110.86 34.39 111.16 35.63 111.16 37.01C111.16 38.45 110.86 39.72 110.26 40.82C109.68 41.92 108.88 42.78 107.86 43.4C106.86 44 105.73 44.3 104.47 44.3ZM104.47 41.6C105.13 41.6 105.7 41.41 106.18 41.03C106.66 40.63 107.04 40.09 107.32 39.41C107.62 38.71 107.77 37.91 107.77 37.01C107.77 36.07 107.62 35.26 107.32 34.58C107.04 33.9 106.66 33.38 106.18 33.02C105.7 32.64 105.13 32.45 104.47 32.45C103.87 32.45 103.32 32.64 102.82 33.02C102.34 33.38 101.95 33.9 101.65 34.58C101.37 35.26 101.23 36.07 101.23 37.01C101.23 37.91 101.37 38.71 101.65 39.41C101.93 40.09 102.31 40.63 102.79 41.03C103.29 41.41 103.85 41.6 104.47 41.6ZM119.77 44.33C118.93 44.33 118.12 44.25 117.34 44.09C116.56 43.95 115.84 43.72 115.18 43.4C114.52 43.06 113.91 42.63 113.35 42.11L114.85 39.35L114.97 39.11L115.21 39.26C115.27 39.4 115.33 39.56 115.39 39.74C115.45 39.9 115.6 40.09 115.84 40.31C116.34 40.73 116.91 41.06 117.55 41.3C118.19 41.54 118.95 41.66 119.83 41.66C120.39 41.66 120.86 41.6 121.24 41.48C121.64 41.34 121.94 41.16 122.14 40.94C122.36 40.7 122.47 40.43 122.47 40.13C122.47 39.89 122.41 39.68 122.29 39.5C122.17 39.32 121.98 39.16 121.72 39.02C121.46 38.88 121.12 38.74 120.7 38.6C120.28 38.44 119.78 38.27 119.2 38.09C118.18 37.83 117.29 37.51 116.53 37.13C115.79 36.73 115.22 36.25 114.82 35.69C114.42 35.13 114.22 34.48 114.22 33.74C114.22 32.96 114.44 32.27 114.88 31.67C115.34 31.07 115.98 30.6 116.8 30.26C117.62 29.9 118.59 29.72 119.71 29.72C120.29 29.72 120.84 29.77 121.36 29.87C121.88 29.95 122.37 30.08 122.83 30.26C123.31 30.42 123.75 30.64 124.15 30.92C124.57 31.18 124.96 31.49 125.32 31.85L123.67 34.16L123.46 34.4L123.25 34.22C123.23 34.06 123.18 33.91 123.1 33.77C123.04 33.61 122.89 33.42 122.65 33.2C122.25 32.9 121.79 32.68 121.27 32.54C120.77 32.4 120.27 32.33 119.77 32.33C119.09 32.33 118.5 32.44 118 32.66C117.52 32.88 117.28 33.22 117.28 33.68C117.28 33.94 117.39 34.18 117.61 34.4C117.83 34.6 118.19 34.8 118.69 35C119.21 35.18 119.89 35.38 120.73 35.6C121.85 35.9 122.76 36.25 123.46 36.65C124.18 37.03 124.7 37.49 125.02 38.03C125.36 38.57 125.53 39.2 125.53 39.92C125.53 40.7 125.31 41.43 124.87 42.11C124.43 42.79 123.78 43.33 122.92 43.73C122.08 44.13 121.03 44.33 119.77 44.33Z" fill="white"/>
<path d="M310.944 44V41.1667H316.056V44H310.944ZM305.833 36.9167V34.0833H321.167V36.9167H305.833ZM302 29.8333V27H325V29.8333H302Z" fill="white"/>
<path d="M354 44V41.1667H377V44H354ZM354 36.9167V34.0833H377V36.9167H354ZM354 29.8333V27H377V29.8333H354Z" fill="white"/>
<path d="M24 1H374V-1H24V1ZM393 20V100H395V20H393ZM374 119H24V121H374V119ZM5 100V20H3V100H5ZM24 119C13.5066 119 5 110.493 5 100H3C3 111.598 12.402 121 24 121V119ZM393 100C393 110.493 384.493 119 374 119V121C385.598 121 395 111.598 395 100H393ZM374 1C384.493 1 393 9.50659 393 20H395C395 8.40202 385.598 -1 374 -1V1ZM24 -1C12.402 -1 3 8.40202 3 20H5C5 9.50659 13.5066 1 24 1V-1Z" fill="white" fill-opacity="0.1"/>
</g>
<g filter="url(#filter1_d_7_37)">
<path d="M4 90C4 78.9543 12.9543 70 24 70H374C385.046 70 394 78.9543 394 90V827C394 838.046 385.046 847 374 847H24C12.9543 847 4 838.046 4 827V90Z" fill="#3B3936" shape-rendering="crispEdges"/>
<path d="M26.06 105V93.186L23.288 94L22.936 93.142L26.522 91.272H27.6V105H26.06ZM47.576 105V92.658H43.682V91.272H53.186V92.658H49.138V105H47.576ZM58.642 105.242C57.498 105.242 56.618 104.985 56.002 104.472C55.386 103.944 55.078 103.277 55.078 102.47C55.078 101.927 55.21 101.443 55.474 101.018C55.738 100.578 56.0973 100.211 56.552 99.918C57.0213 99.61 57.564 99.3753 58.18 99.214C58.796 99.0527 59.4487 98.972 60.138 98.972C60.3873 98.972 60.6367 98.9793 60.886 98.994C61.15 98.994 61.4213 99.0087 61.7 99.038C61.9933 99.0527 62.294 99.082 62.602 99.126L62.646 100.336C62.382 100.292 62.1107 100.263 61.832 100.248C61.568 100.219 61.304 100.197 61.04 100.182C60.776 100.167 60.5193 100.16 60.27 100.16C59.742 100.16 59.258 100.204 58.818 100.292C58.378 100.38 57.9967 100.512 57.674 100.688C57.3513 100.864 57.102 101.091 56.926 101.37C56.75 101.649 56.662 101.986 56.662 102.382C56.662 102.69 56.7133 102.954 56.816 103.174C56.9333 103.379 57.0873 103.548 57.278 103.68C57.4687 103.797 57.6887 103.885 57.938 103.944C58.202 104.003 58.488 104.032 58.796 104.032C59.368 104.032 59.874 103.944 60.314 103.768C60.7687 103.577 61.15 103.306 61.458 102.954C61.7807 102.602 62.0227 102.169 62.184 101.656C62.3453 101.143 62.426 100.556 62.426 99.896C62.426 98.8987 62.3087 98.1213 62.074 97.564C61.8393 97.0067 61.4873 96.6107 61.018 96.376C60.5633 96.1413 59.9767 96.024 59.258 96.024C58.774 96.024 58.2973 96.1193 57.828 96.31C57.3587 96.486 56.9333 96.7647 56.552 97.146L55.782 96.134C56.2513 95.6647 56.794 95.3127 57.41 95.078C58.026 94.8433 58.6787 94.726 59.368 94.726C60.028 94.726 60.6293 94.8067 61.172 94.968C61.7147 95.1293 62.1767 95.4007 62.558 95.782C62.954 96.1487 63.2547 96.6473 63.46 97.278C63.68 97.9087 63.79 98.7007 63.79 99.654V105H62.074V103.46C61.8833 103.827 61.6487 104.127 61.37 104.362C61.106 104.597 60.82 104.78 60.512 104.912C60.204 105.029 59.8887 105.11 59.566 105.154C59.2433 105.213 58.9353 105.242 58.642 105.242ZM70.522 105.22C69.9647 105.22 69.4293 105.161 68.916 105.044C68.4173 104.927 67.9407 104.751 67.486 104.516C67.046 104.281 66.6353 103.988 66.254 103.636L67.134 102.14L67.266 101.942L67.398 102.03C67.4273 102.147 67.4567 102.272 67.486 102.404C67.53 102.521 67.6327 102.668 67.794 102.844C68.102 103.152 68.4687 103.409 68.894 103.614C69.334 103.805 69.8913 103.9 70.566 103.9C71.1087 103.9 71.5633 103.834 71.93 103.702C72.3113 103.57 72.6047 103.387 72.81 103.152C73.0153 102.903 73.118 102.617 73.118 102.294C73.118 102.074 73.074 101.883 72.986 101.722C72.898 101.546 72.7513 101.385 72.546 101.238C72.3553 101.091 72.0987 100.945 71.776 100.798C71.4533 100.651 71.0573 100.505 70.588 100.358C69.8253 100.138 69.158 99.8813 68.586 99.588C68.014 99.2947 67.574 98.9573 67.266 98.576C66.958 98.18 66.804 97.7327 66.804 97.234C66.804 96.7207 66.9433 96.2807 67.222 95.914C67.5007 95.5327 67.9113 95.2393 68.454 95.034C69.0113 94.814 69.6933 94.704 70.5 94.704C70.9693 94.704 71.3947 94.7407 71.776 94.814C72.1573 94.8727 72.5093 94.968 72.832 95.1C73.1547 95.232 73.448 95.4007 73.712 95.606C73.9907 95.7967 74.2547 96.024 74.504 96.288L73.602 97.388L73.448 97.564L73.338 97.454C73.3233 97.3367 73.2867 97.2267 73.228 97.124C73.184 97.0067 73.0813 96.8673 72.92 96.706C72.5827 96.442 72.2013 96.244 71.776 96.112C71.3507 95.9653 70.94 95.892 70.544 95.892C69.9573 95.892 69.4513 95.9947 69.026 96.2C68.6007 96.4053 68.388 96.7207 68.388 97.146C68.388 97.366 68.4613 97.586 68.608 97.806C68.7693 98.0113 69.0553 98.224 69.466 98.444C69.8767 98.6493 70.4633 98.862 71.226 99.082C72.062 99.346 72.7293 99.6173 73.228 99.896C73.7413 100.16 74.108 100.468 74.328 100.82C74.5627 101.172 74.68 101.59 74.68 102.074C74.68 102.631 74.526 103.152 74.218 103.636C73.9247 104.12 73.47 104.509 72.854 104.802C72.238 105.081 71.4607 105.22 70.522 105.22ZM80.378 99.962L79.058 101.194V105H77.452V90.37H79.036H79.256V90.524C79.168 90.612 79.1093 90.7073 79.08 90.81C79.0653 90.9127 79.058 91.0887 79.058 91.338V99.566L84.096 94.902C84.184 94.9167 84.272 94.9313 84.36 94.946C84.448 94.9607 84.536 94.9753 84.624 94.99C84.7267 94.99 84.8293 94.9973 84.932 95.012C85.0493 95.012 85.1593 95.012 85.262 95.012H85.834L81.61 98.994L86.538 105L84.492 105.088L80.378 99.962Z" fill="#C1C1C1"/>
<path d="M21 98.972H87V100.072H21V98.972Z" fill="#C1C1C1"/>
<path d="M23.606 158.768C24.398 157.961 25.124 157.228 25.784 156.568C26.444 155.908 27.0307 155.299 27.544 154.742C28.072 154.17 28.5193 153.635 28.886 153.136C29.2527 152.623 29.5313 152.124 29.722 151.64C29.9127 151.141 30.008 150.621 30.008 150.078C30.008 149.609 29.9493 149.213 29.832 148.89C29.7147 148.567 29.546 148.311 29.326 148.12C29.1207 147.915 28.8713 147.768 28.578 147.68C28.2993 147.592 27.9987 147.548 27.676 147.548C27.324 147.548 26.9867 147.599 26.664 147.702C26.3413 147.805 26.0333 147.959 25.74 148.164C25.4467 148.355 25.1753 148.611 24.926 148.934C24.794 149.139 24.7133 149.301 24.684 149.418C24.6547 149.521 24.6473 149.631 24.662 149.748L24.574 149.858L24.398 149.748L23.276 148.868C23.5693 148.296 23.936 147.812 24.376 147.416C24.816 147.02 25.3147 146.719 25.872 146.514C26.4293 146.309 27.0233 146.206 27.654 146.206C28.4313 146.206 29.1133 146.367 29.7 146.69C30.2867 146.998 30.7487 147.445 31.086 148.032C31.4233 148.619 31.592 149.315 31.592 150.122C31.592 150.723 31.482 151.31 31.262 151.882C31.042 152.439 30.7413 152.989 30.36 153.532C29.9787 154.075 29.5313 154.617 29.018 155.16C28.5047 155.703 27.9547 156.267 27.368 156.854C26.796 157.426 26.202 158.027 25.586 158.658H30.69C30.9393 158.658 31.1153 158.643 31.218 158.614C31.3207 158.585 31.416 158.526 31.504 158.438H31.658V158.658V160H23.606V158.768ZM48.576 160V147.658H44.682V146.272H54.186V147.658H50.138V160H48.576ZM59.642 160.242C58.498 160.242 57.618 159.985 57.002 159.472C56.386 158.944 56.078 158.277 56.078 157.47C56.078 156.927 56.21 156.443 56.474 156.018C56.738 155.578 57.0973 155.211 57.552 154.918C58.0213 154.61 58.564 154.375 59.18 154.214C59.796 154.053 60.4487 153.972 61.138 153.972C61.3873 153.972 61.6367 153.979 61.886 153.994C62.15 153.994 62.4213 154.009 62.7 154.038C62.9933 154.053 63.294 154.082 63.602 154.126L63.646 155.336C63.382 155.292 63.1107 155.263 62.832 155.248C62.568 155.219 62.304 155.197 62.04 155.182C61.776 155.167 61.5193 155.16 61.27 155.16C60.742 155.16 60.258 155.204 59.818 155.292C59.378 155.38 58.9967 155.512 58.674 155.688C58.3513 155.864 58.102 156.091 57.926 156.37C57.75 156.649 57.662 156.986 57.662 157.382C57.662 157.69 57.7133 157.954 57.816 158.174C57.9333 158.379 58.0873 158.548 58.278 158.68C58.4687 158.797 58.6887 158.885 58.938 158.944C59.202 159.003 59.488 159.032 59.796 159.032C60.368 159.032 60.874 158.944 61.314 158.768C61.7687 158.577 62.15 158.306 62.458 157.954C62.7807 157.602 63.0227 157.169 63.184 156.656C63.3453 156.143 63.426 155.556 63.426 154.896C63.426 153.899 63.3087 153.121 63.074 152.564C62.8393 152.007 62.4873 151.611 62.018 151.376C61.5633 151.141 60.9767 151.024 60.258 151.024C59.774 151.024 59.2973 151.119 58.828 151.31C58.3587 151.486 57.9333 151.765 57.552 152.146L56.782 151.134C57.2513 150.665 57.794 150.313 58.41 150.078C59.026 149.843 59.6787 149.726 60.368 149.726C61.028 149.726 61.6293 149.807 62.172 149.968C62.7147 150.129 63.1767 150.401 63.558 150.782C63.954 151.149 64.2547 151.647 64.46 152.278C64.68 152.909 64.79 153.701 64.79 154.654V160H63.074V158.46C62.8833 158.827 62.6487 159.127 62.37 159.362C62.106 159.597 61.82 159.78 61.512 159.912C61.204 160.029 60.8887 160.11 60.566 160.154C60.2433 160.213 59.9353 160.242 59.642 160.242ZM71.522 160.22C70.9647 160.22 70.4293 160.161 69.916 160.044C69.4173 159.927 68.9407 159.751 68.486 159.516C68.046 159.281 67.6353 158.988 67.254 158.636L68.134 157.14L68.266 156.942L68.398 157.03C68.4273 157.147 68.4567 157.272 68.486 157.404C68.53 157.521 68.6327 157.668 68.794 157.844C69.102 158.152 69.4687 158.409 69.894 158.614C70.334 158.805 70.8913 158.9 71.566 158.9C72.1087 158.9 72.5633 158.834 72.93 158.702C73.3113 158.57 73.6047 158.387 73.81 158.152C74.0153 157.903 74.118 157.617 74.118 157.294C74.118 157.074 74.074 156.883 73.986 156.722C73.898 156.546 73.7513 156.385 73.546 156.238C73.3553 156.091 73.0987 155.945 72.776 155.798C72.4533 155.651 72.0573 155.505 71.588 155.358C70.8253 155.138 70.158 154.881 69.586 154.588C69.014 154.295 68.574 153.957 68.266 153.576C67.958 153.18 67.804 152.733 67.804 152.234C67.804 151.721 67.9433 151.281 68.222 150.914C68.5007 150.533 68.9113 150.239 69.454 150.034C70.0113 149.814 70.6933 149.704 71.5 149.704C71.9693 149.704 72.3947 149.741 72.776 149.814C73.1573 149.873 73.5093 149.968 73.832 150.1C74.1547 150.232 74.448 150.401 74.712 150.606C74.9907 150.797 75.2547 151.024 75.504 151.288L74.602 152.388L74.448 152.564L74.338 152.454C74.3233 152.337 74.2867 152.227 74.228 152.124C74.184 152.007 74.0813 151.867 73.92 151.706C73.5827 151.442 73.2013 151.244 72.776 151.112C72.3507 150.965 71.94 150.892 71.544 150.892C70.9573 150.892 70.4513 150.995 70.026 151.2C69.6007 151.405 69.388 151.721 69.388 152.146C69.388 152.366 69.4613 152.586 69.608 152.806C69.7693 153.011 70.0553 153.224 70.466 153.444C70.8767 153.649 71.4633 153.862 72.226 154.082C73.062 154.346 73.7293 154.617 74.228 154.896C74.7413 155.16 75.108 155.468 75.328 155.82C75.5627 156.172 75.68 156.59 75.68 157.074C75.68 157.631 75.526 158.152 75.218 158.636C74.9247 159.12 74.47 159.509 73.854 159.802C73.238 160.081 72.4607 160.22 71.522 160.22ZM81.378 154.962L80.058 156.194V160H78.452V145.37H80.036H80.256V145.524C80.168 145.612 80.1093 145.707 80.08 145.81C80.0653 145.913 80.058 146.089 80.058 146.338V154.566L85.096 149.902C85.184 149.917 85.272 149.931 85.36 149.946C85.448 149.961 85.536 149.975 85.624 149.99C85.7267 149.99 85.8293 149.997 85.932 150.012C86.0493 150.012 86.1593 150.012 86.262 150.012H86.834L82.61 153.994L87.538 160L85.492 160.088L81.378 154.962Z" fill="white"/>
<path d="M27.996 286V282.634H22.056V281.512L28.326 272.272H29.624V281.358H31.384V282.656H29.624V286H27.996ZM23.838 281.336H27.996V275.044L23.838 281.336ZM47.576 286V273.658H43.682V272.272H53.186V273.658H49.138V286H47.576ZM58.642 286.242C57.498 286.242 56.618 285.985 56.002 285.472C55.386 284.944 55.078 284.277 55.078 283.47C55.078 282.927 55.21 282.443 55.474 282.018C55.738 281.578 56.0973 281.211 56.552 280.918C57.0213 280.61 57.564 280.375 58.18 280.214C58.796 280.053 59.4487 279.972 60.138 279.972C60.3873 279.972 60.6367 279.979 60.886 279.994C61.15 279.994 61.4213 280.009 61.7 280.038C61.9933 280.053 62.294 280.082 62.602 280.126L62.646 281.336C62.382 281.292 62.1107 281.263 61.832 281.248C61.568 281.219 61.304 281.197 61.04 281.182C60.776 281.167 60.5193 281.16 60.27 281.16C59.742 281.16 59.258 281.204 58.818 281.292C58.378 281.38 57.9967 281.512 57.674 281.688C57.3513 281.864 57.102 282.091 56.926 282.37C56.75 282.649 56.662 282.986 56.662 283.382C56.662 283.69 56.7133 283.954 56.816 284.174C56.9333 284.379 57.0873 284.548 57.278 284.68C57.4687 284.797 57.6887 284.885 57.938 284.944C58.202 285.003 58.488 285.032 58.796 285.032C59.368 285.032 59.874 284.944 60.314 284.768C60.7687 284.577 61.15 284.306 61.458 283.954C61.7807 283.602 62.0227 283.169 62.184 282.656C62.3453 282.143 62.426 281.556 62.426 280.896C62.426 279.899 62.3087 279.121 62.074 278.564C61.8393 278.007 61.4873 277.611 61.018 277.376C60.5633 277.141 59.9767 277.024 59.258 277.024C58.774 277.024 58.2973 277.119 57.828 277.31C57.3587 277.486 56.9333 277.765 56.552 278.146L55.782 277.134C56.2513 276.665 56.794 276.313 57.41 276.078C58.026 275.843 58.6787 275.726 59.368 275.726C60.028 275.726 60.6293 275.807 61.172 275.968C61.7147 276.129 62.1767 276.401 62.558 276.782C62.954 277.149 63.2547 277.647 63.46 278.278C63.68 278.909 63.79 279.701 63.79 280.654V286H62.074V284.46C61.8833 284.827 61.6487 285.127 61.37 285.362C61.106 285.597 60.82 285.78 60.512 285.912C60.204 286.029 59.8887 286.11 59.566 286.154C59.2433 286.213 58.9353 286.242 58.642 286.242ZM70.522 286.22C69.9647 286.22 69.4293 286.161 68.916 286.044C68.4173 285.927 67.9407 285.751 67.486 285.516C67.046 285.281 66.6353 284.988 66.254 284.636L67.134 283.14L67.266 282.942L67.398 283.03C67.4273 283.147 67.4567 283.272 67.486 283.404C67.53 283.521 67.6327 283.668 67.794 283.844C68.102 284.152 68.4687 284.409 68.894 284.614C69.334 284.805 69.8913 284.9 70.566 284.9C71.1087 284.9 71.5633 284.834 71.93 284.702C72.3113 284.57 72.6047 284.387 72.81 284.152C73.0153 283.903 73.118 283.617 73.118 283.294C73.118 283.074 73.074 282.883 72.986 282.722C72.898 282.546 72.7513 282.385 72.546 282.238C72.3553 282.091 72.0987 281.945 71.776 281.798C71.4533 281.651 71.0573 281.505 70.588 281.358C69.8253 281.138 69.158 280.881 68.586 280.588C68.014 280.295 67.574 279.957 67.266 279.576C66.958 279.18 66.804 278.733 66.804 278.234C66.804 277.721 66.9433 277.281 67.222 276.914C67.5007 276.533 67.9113 276.239 68.454 276.034C69.0113 275.814 69.6933 275.704 70.5 275.704C70.9693 275.704 71.3947 275.741 71.776 275.814C72.1573 275.873 72.5093 275.968 72.832 276.1C73.1547 276.232 73.448 276.401 73.712 276.606C73.9907 276.797 74.2547 277.024 74.504 277.288L73.602 278.388L73.448 278.564L73.338 278.454C73.3233 278.337 73.2867 278.227 73.228 278.124C73.184 278.007 73.0813 277.867 72.92 277.706C72.5827 277.442 72.2013 277.244 71.776 277.112C71.3507 276.965 70.94 276.892 70.544 276.892C69.9573 276.892 69.4513 276.995 69.026 277.2C68.6007 277.405 68.388 277.721 68.388 278.146C68.388 278.366 68.4613 278.586 68.608 278.806C68.7693 279.011 69.0553 279.224 69.466 279.444C69.8767 279.649 70.4633 279.862 71.226 280.082C72.062 280.346 72.7293 280.617 73.228 280.896C73.7413 281.16 74.108 281.468 74.328 281.82C74.5627 282.172 74.68 282.59 74.68 283.074C74.68 283.631 74.526 284.152 74.218 284.636C73.9247 285.12 73.47 285.509 72.854 285.802C72.238 286.081 71.4607 286.22 70.522 286.22ZM80.378 280.962L79.058 282.194V286H77.452V271.37H79.036H79.256V271.524C79.168 271.612 79.1093 271.707 79.08 271.81C79.0653 271.913 79.058 272.089 79.058 272.338V280.566L84.096 275.902C84.184 275.917 84.272 275.931 84.36 275.946C84.448 275.961 84.536 275.975 84.624 275.99C84.7267 275.99 84.8293 275.997 84.932 276.012C85.0493 276.012 85.1593 276.012 85.262 276.012H85.834L81.61 279.994L86.538 286L84.492 286.088L80.378 280.962Z" fill="white"/>
<path d="M26.28 223.242C25.5613 223.242 24.872 223.11 24.212 222.846C23.552 222.582 22.9873 222.193 22.518 221.68L23.53 220.47L23.684 220.294L23.794 220.404C23.8087 220.521 23.838 220.639 23.882 220.756C23.926 220.859 24.0287 220.998 24.19 221.174C24.4393 221.394 24.7253 221.577 25.048 221.724C25.3707 221.856 25.7593 221.922 26.214 221.922C26.8007 221.922 27.2847 221.805 27.666 221.57C28.0473 221.335 28.3333 221.013 28.524 220.602C28.7147 220.177 28.81 219.7 28.81 219.172C28.81 218.644 28.7147 218.197 28.524 217.83C28.348 217.463 28.0913 217.177 27.754 216.972C27.4167 216.752 27.0133 216.605 26.544 216.532C26.0747 216.444 25.5467 216.429 24.96 216.488V215.256C25.664 215.256 26.236 215.183 26.676 215.036C27.1307 214.889 27.4753 214.691 27.71 214.442C27.9593 214.193 28.128 213.907 28.216 213.584C28.304 213.247 28.348 212.902 28.348 212.55C28.348 212.242 28.2967 211.963 28.194 211.714C28.106 211.465 27.974 211.252 27.798 211.076C27.6367 210.9 27.4313 210.768 27.182 210.68C26.9473 210.577 26.6833 210.526 26.39 210.526C26.0967 210.526 25.8033 210.563 25.51 210.636C25.2313 210.695 24.9527 210.797 24.674 210.944C24.41 211.091 24.146 211.289 23.882 211.538L22.958 210.614C23.4567 210.101 23.9993 209.741 24.586 209.536C25.1873 209.316 25.7813 209.206 26.368 209.206C27.116 209.206 27.754 209.353 28.282 209.646C28.81 209.925 29.2133 210.321 29.492 210.834C29.7853 211.347 29.932 211.941 29.932 212.616C29.932 213.085 29.8513 213.533 29.69 213.958C29.5433 214.369 29.3087 214.728 28.986 215.036C28.6633 215.344 28.26 215.579 27.776 215.74C28.2893 215.901 28.744 216.143 29.14 216.466C29.536 216.774 29.844 217.155 30.064 217.61C30.284 218.065 30.394 218.607 30.394 219.238C30.394 219.957 30.2327 220.624 29.91 221.24C29.602 221.841 29.14 222.325 28.524 222.692C27.9227 223.059 27.1747 223.242 26.28 223.242ZM47.576 223V210.658H43.682V209.272H53.186V210.658H49.138V223H47.576ZM58.642 223.242C57.498 223.242 56.618 222.985 56.002 222.472C55.386 221.944 55.078 221.277 55.078 220.47C55.078 219.927 55.21 219.443 55.474 219.018C55.738 218.578 56.0973 218.211 56.552 217.918C57.0213 217.61 57.564 217.375 58.18 217.214C58.796 217.053 59.4487 216.972 60.138 216.972C60.3873 216.972 60.6367 216.979 60.886 216.994C61.15 216.994 61.4213 217.009 61.7 217.038C61.9933 217.053 62.294 217.082 62.602 217.126L62.646 218.336C62.382 218.292 62.1107 218.263 61.832 218.248C61.568 218.219 61.304 218.197 61.04 218.182C60.776 218.167 60.5193 218.16 60.27 218.16C59.742 218.16 59.258 218.204 58.818 218.292C58.378 218.38 57.9967 218.512 57.674 218.688C57.3513 218.864 57.102 219.091 56.926 219.37C56.75 219.649 56.662 219.986 56.662 220.382C56.662 220.69 56.7133 220.954 56.816 221.174C56.9333 221.379 57.0873 221.548 57.278 221.68C57.4687 221.797 57.6887 221.885 57.938 221.944C58.202 222.003 58.488 222.032 58.796 222.032C59.368 222.032 59.874 221.944 60.314 221.768C60.7687 221.577 61.15 221.306 61.458 220.954C61.7807 220.602 62.0227 220.169 62.184 219.656C62.3453 219.143 62.426 218.556 62.426 217.896C62.426 216.899 62.3087 216.121 62.074 215.564C61.8393 215.007 61.4873 214.611 61.018 214.376C60.5633 214.141 59.9767 214.024 59.258 214.024C58.774 214.024 58.2973 214.119 57.828 214.31C57.3587 214.486 56.9333 214.765 56.552 215.146L55.782 214.134C56.2513 213.665 56.794 213.313 57.41 213.078C58.026 212.843 58.6787 212.726 59.368 212.726C60.028 212.726 60.6293 212.807 61.172 212.968C61.7147 213.129 62.1767 213.401 62.558 213.782C62.954 214.149 63.2547 214.647 63.46 215.278C63.68 215.909 63.79 216.701 63.79 217.654V223H62.074V221.46C61.8833 221.827 61.6487 222.127 61.37 222.362C61.106 222.597 60.82 222.78 60.512 222.912C60.204 223.029 59.8887 223.11 59.566 223.154C59.2433 223.213 58.9353 223.242 58.642 223.242ZM70.522 223.22C69.9647 223.22 69.4293 223.161 68.916 223.044C68.4173 222.927 67.9407 222.751 67.486 222.516C67.046 222.281 66.6353 221.988 66.254 221.636L67.134 220.14L67.266 219.942L67.398 220.03C67.4273 220.147 67.4567 220.272 67.486 220.404C67.53 220.521 67.6327 220.668 67.794 220.844C68.102 221.152 68.4687 221.409 68.894 221.614C69.334 221.805 69.8913 221.9 70.566 221.9C71.1087 221.9 71.5633 221.834 71.93 221.702C72.3113 221.57 72.6047 221.387 72.81 221.152C73.0153 220.903 73.118 220.617 73.118 220.294C73.118 220.074 73.074 219.883 72.986 219.722C72.898 219.546 72.7513 219.385 72.546 219.238C72.3553 219.091 72.0987 218.945 71.776 218.798C71.4533 218.651 71.0573 218.505 70.588 218.358C69.8253 218.138 69.158 217.881 68.586 217.588C68.014 217.295 67.574 216.957 67.266 216.576C66.958 216.18 66.804 215.733 66.804 215.234C66.804 214.721 66.9433 214.281 67.222 213.914C67.5007 213.533 67.9113 213.239 68.454 213.034C69.0113 212.814 69.6933 212.704 70.5 212.704C70.9693 212.704 71.3947 212.741 71.776 212.814C72.1573 212.873 72.5093 212.968 72.832 213.1C73.1547 213.232 73.448 213.401 73.712 213.606C73.9907 213.797 74.2547 214.024 74.504 214.288L73.602 215.388L73.448 215.564L73.338 215.454C73.3233 215.337 73.2867 215.227 73.228 215.124C73.184 215.007 73.0813 214.867 72.92 214.706C72.5827 214.442 72.2013 214.244 71.776 214.112C71.3507 213.965 70.94 213.892 70.544 213.892C69.9573 213.892 69.4513 213.995 69.026 214.2C68.6007 214.405 68.388 214.721 68.388 215.146C68.388 215.366 68.4613 215.586 68.608 215.806C68.7693 216.011 69.0553 216.224 69.466 216.444C69.8767 216.649 70.4633 216.862 71.226 217.082C72.062 217.346 72.7293 217.617 73.228 217.896C73.7413 218.16 74.108 218.468 74.328 218.82C74.5627 219.172 74.68 219.59 74.68 220.074C74.68 220.631 74.526 221.152 74.218 221.636C73.9247 222.12 73.47 222.509 72.854 222.802C72.238 223.081 71.4607 223.22 70.522 223.22ZM80.378 217.962L79.058 219.194V223H77.452V208.37H79.036H79.256V208.524C79.168 208.612 79.1093 208.707 79.08 208.81C79.0653 208.913 79.058 209.089 79.058 209.338V217.566L84.096 212.902C84.184 212.917 84.272 212.931 84.36 212.946C84.448 212.961 84.536 212.975 84.624 212.99C84.7267 212.99 84.8293 212.997 84.932 213.012C85.0493 213.012 85.1593 213.012 85.262 213.012H85.834L81.61 216.994L86.538 223L84.492 223.088L80.378 217.962Z" fill="#C1C1C1"/>
<path d="M21 216.972H87V218.072H21V216.972Z" fill="#C1C1C1"/>
<rect x="356.167" y="86.5" width="19" height="19" rx="3.5" fill="white" stroke="white"/>
<path d="M363.575 98.175L369.475 92.275C369.658 92.0917 369.892 92 370.175 92C370.458 92 370.692 92.0917 370.875 92.275C371.058 92.4583 371.15 92.6917 371.15 92.975C371.15 93.2583 371.058 93.4917 370.875 93.675L364.275 100.275C364.075 100.475 363.842 100.575 363.575 100.575C363.308 100.575 363.075 100.475 362.875 100.275L360.275 97.675C360.092 97.4917 360 97.2583 360 96.975C360 96.6917 360.092 96.4583 360.275 96.275C360.458 96.0917 360.692 96 360.975 96C361.258 96 361.492 96.0917 361.675 96.275L363.575 98.175Z" fill="#3B3936"/>
<rect x="355.5" y="140.5" width="21" height="21" rx="4.5" fill="#3B3936" stroke="white"/>
<rect x="356.5" y="204.5" width="19" height="19" rx="3.5" fill="white" stroke="white"/>
<path d="M363.575 216.175L369.475 210.275C369.658 210.092 369.892 210 370.175 210C370.458 210 370.692 210.092 370.875 210.275C371.058 210.458 371.15 210.692 371.15 210.975C371.15 211.258 371.058 211.492 370.875 211.675L364.275 218.275C364.075 218.475 363.842 218.575 363.575 218.575C363.308 218.575 363.075 218.475 362.875 218.275L360.275 215.675C360.092 215.492 360 215.258 360 214.975C360 214.692 360.092 214.458 360.275 214.275C360.458 214.092 360.692 214 360.975 214C361.258 214 361.492 214.092 361.675 214.275L363.575 216.175Z" fill="#3B3936"/>
<rect x="356.5" y="267.5" width="19" height="19" rx="3.5" fill="#3B3936" stroke="white"/>
<circle cx="346" cy="801" r="29" fill="white"/>
<g clip-path="url(#clip0_7_37)">
<path d="M356 802.429H347.429V811H344.571V802.429H336V799.571H344.571V791H347.429V799.571H356V802.429Z" fill="#3B3936"/>
</g>
</g>
<defs>
<filter id="filter0_d_7_37" x="0" y="0" width="398" height="128" filterUnits="userSpaceOnUse" color-interpolation-filters="sRGB">
<feFlood flood-opacity="0" result="BackgroundImageFix"/>
<feColorMatrix in="SourceAlpha" type="matrix" values="0 0 0 0 0 0 0 0 0 0 0 0 0 0 0 0 0 0 127 0" result="hardAlpha"/>
<feOffset dy="4"/>
<feGaussianBlur stdDeviation="2"/>
<feComposite in2="hardAlpha" operator="out"/>
<feColorMatrix type="matrix" values="0 0 0 0 0 0 0 0 0 0 0 0 0 0 0 0 0 0 0.25 0"/>
<feBlend mode="normal" in2="BackgroundImageFix" result="effect1_dropShadow_7_37"/>
<feBlend mode="normal" in="SourceGraphic" in2="effect1_dropShadow_7_37" result="shape"/>
</filter>
<filter id="filter1_d_7_37" x="0" y="70" width="398" height="785" filterUnits="userSpaceOnUse" color-interpolation-filters="sRGB">
<feFlood flood-opacity="0" result="BackgroundImageFix"/>
<feColorMatrix in="SourceAlpha" type="matrix" values="0 0 0 0 0 0 0 0 0 0 0 0 0 0 0 0 0 0 127 0" result="hardAlpha"/>
<feOffset dy="4"/>
<feGaussianBlur stdDeviation="2"/>
<feComposite in2="hardAlpha" operator="out"/>
<feColorMatrix type="matrix" values="0 0 0 0 0 0 0 0 0 0 0 0 0 0 0 0 0 0 0.25 0"/>
<feBlend mode="normal" in2="BackgroundImageFix" result="effect1_dropShadow_7_37"/>
<feBlend mode="normal" in="SourceGraphic" in2="effect1_dropShadow_7_37" result="shape"/>
</filter>
<clipPath id="clip0_7_37">
<rect width="20" height="20" fill="white" transform="translate(336 791)"/>
</clipPath>
</defs>
</svg>
