<svg width="20" height="14" viewBox="0 0 20 14" fill="none" xmlns="http://www.w3.org/2000/svg">
<path d="M1.16667 14C0.522333 14 0 13.4777 0 12.8333V12.8333C0 12.189 0.522334 11.6667 1.16667 11.6667H18.8333C19.4777 11.6667 20 12.189 20 12.8333V12.8333C20 13.4777 19.4777 14 18.8333 14H1.16667ZM1.16667 8.16667C0.522333 8.16667 0 7.64433 0 7V7C0 6.35567 0.522334 5.83333 1.16667 5.83333H18.8333C19.4777 5.83333 20 6.35567 20 7V7C20 7.64433 19.4777 8.16667 18.8333 8.16667H1.16667ZM1.16667 2.33333C0.522333 2.33333 0 1.811 0 1.16667V1.16667C0 0.522334 0.522334 0 1.16667 0H18.8333C19.4777 0 20 0.522334 20 1.16667V1.16667C20 1.811 19.4777 2.33333 18.8333 2.33333H1.16667Z" fill="white"/>
</svg>
